<?xml version="1.0" encoding="utf-8"?>
<!-- Generator: Adobe Illustrator 22.0.0, SVG Export Plug-In . SVG Version: 6.00 Build 0)  -->
<svg version="1.1" id="Layer_1" xmlns="http://www.w3.org/2000/svg" xmlns:xlink="http://www.w3.org/1999/xlink" x="0px" y="0px"
	 viewBox="0 0 400 400" style="enable-background:new 0 0 400 400;" xml:space="preserve">
<style type="text/css">
	.st0{fill:#666666;}
</style>
<path class="st0" d="M336.6,105.8L105.8,336.6c-6.6,6.6-17.2,6.6-23.8,0L63.4,318c-6.6-6.6-6.6-17.2,0-23.8L294.2,63.4
	c6.6-6.6,17.2-6.6,23.8,0l18.7,18.7C343.2,88.7,343.2,99.3,336.6,105.8z"/>
<path class="st0" d="M294.9,336.8L63.7,105.6c-6.4-6.4-6.4-16.9,0-23.3l19.1-19.1c6.4-6.4,16.9-6.4,23.3,0l231.2,231.2
	c6.4,6.4,6.4,16.9,0,23.3l-19.1,19.1C311.8,343.3,301.3,343.3,294.9,336.8z"/>
</svg>
