<?xml version="1.0" encoding="utf-8"?>
<!-- Generator: Adobe Illustrator 22.0.0, SVG Export Plug-In . SVG Version: 6.00 Build 0)  -->
<svg version="1.1" id="Layer_1" xmlns="http://www.w3.org/2000/svg" xmlns:xlink="http://www.w3.org/1999/xlink" x="0px" y="0px"
	 viewBox="0 0 400 400" style="enable-background:new 0 0 400 400;" xml:space="preserve">
<style type="text/css">
	.st0{fill:#666666;}
</style>
<path class="st0" d="M363.3,125.5H36.8c-9.3,0-16.8-7.5-16.8-16.8V82.3c0-9.3,7.5-16.8,16.8-16.8h326.5c9.3,0,16.8,7.5,16.8,16.8
	v26.5C380,118,372.5,125.5,363.3,125.5z"/>
<path class="st0" d="M364,235.5H37c-9.1,0-16.5-7.4-16.5-16.5v-27c0-9.1,7.4-16.5,16.5-16.5h327c9.1,0,16.5,7.4,16.5,16.5v27
	C380.5,228.1,373.1,235.5,364,235.5z"/>
<path class="st0" d="M364,345.5H37c-9.1,0-16.5-7.4-16.5-16.5v-27c0-9.1,7.4-16.5,16.5-16.5h327c9.1,0,16.5,7.4,16.5,16.5v27
	C380.5,338.1,373.1,345.5,364,345.5z"/>
</svg>
